<mxfile host="www.draw.io" modified="2020-02-13T04:29:28.208Z" agent="Mozilla/5.0 (Windows NT 10.0; Win64; x64) AppleWebKit/537.36 (KHTML, like Gecko) Chrome/75.0.3770.100 Safari/537.36" etag="zJWvRxMkOvIpS6PJ-wZG" version="12.6.8" type="github">
  <diagram name="Page-1" id="9f46799a-70d6-7492-0946-bef42562c5a5">
    <mxGraphModel dx="1250" dy="549" grid="1" gridSize="10" guides="1" tooltips="1" connect="1" arrows="1" fold="1" page="1" pageScale="1" pageWidth="1100" pageHeight="850" background="#ffffff" math="0" shadow="0">
      <root>
        <mxCell id="0"/>
        <mxCell id="1" parent="0"/>
        <mxCell id="zhC1__bNFVw9QpbkRwe5-1" value="EccustomerLoginController" style="swimlane;html=1;fontStyle=1;align=center;verticalAlign=top;childLayout=stackLayout;horizontal=1;startSize=26;horizontalStack=0;resizeParent=1;resizeLast=0;collapsible=1;marginBottom=0;swimlaneFillColor=#ffffff;rounded=0;shadow=0;comic=0;labelBackgroundColor=none;strokeWidth=1;fillColor=none;fontFamily=Verdana;fontSize=12" parent="1" vertex="1">
          <mxGeometry x="425" y="170" width="250" height="240" as="geometry"/>
        </mxCell>
        <mxCell id="zhC1__bNFVw9QpbkRwe5-7" value="" style="line;html=1;strokeWidth=1;fillColor=none;align=left;verticalAlign=middle;spacingTop=-1;spacingLeft=3;spacingRight=3;rotatable=0;labelPosition=right;points=[];portConstraint=eastwest;" parent="zhC1__bNFVw9QpbkRwe5-1" vertex="1">
          <mxGeometry y="26" width="250" height="8" as="geometry"/>
        </mxCell>
        <mxCell id="zhC1__bNFVw9QpbkRwe5-8" value="+ register(type): 用户手机号注册" style="text;html=1;strokeColor=none;fillColor=none;align=left;verticalAlign=top;spacingLeft=4;spacingRight=4;whiteSpace=wrap;overflow=hidden;rotatable=0;points=[[0,0.5],[1,0.5]];portConstraint=eastwest;" parent="zhC1__bNFVw9QpbkRwe5-1" vertex="1">
          <mxGeometry y="34" width="250" height="26" as="geometry"/>
        </mxCell>
        <mxCell id="zhC1__bNFVw9QpbkRwe5-9" value="+ method(type): type" style="text;html=1;strokeColor=none;fillColor=none;align=left;verticalAlign=top;spacingLeft=4;spacingRight=4;whiteSpace=wrap;overflow=hidden;rotatable=0;points=[[0,0.5],[1,0.5]];portConstraint=eastwest;" parent="zhC1__bNFVw9QpbkRwe5-1" vertex="1">
          <mxGeometry y="60" width="250" height="36" as="geometry"/>
        </mxCell>
        <mxCell id="zhC1__bNFVw9QpbkRwe5-13" value="&lt;pre style=&quot;background-color: rgb(255 , 255 , 255) ; font-size: 12pt&quot;&gt;&lt;span style=&quot;color: #008000 ; font-weight: bold&quot;&gt;客户登录注册&lt;/span&gt;&lt;/pre&gt;" style="shape=note;whiteSpace=wrap;html=1;size=14;verticalAlign=top;align=left;spacingTop=-6;" parent="1" vertex="1">
          <mxGeometry x="690" y="120" width="100" height="50" as="geometry"/>
        </mxCell>
      </root>
    </mxGraphModel>
  </diagram>
</mxfile>
